<svg xmlns="http://www.w3.org/2000/svg" xmlns:v="https://svgstorm.com"
viewBox = "0 0 128 128"
width="128"
height="128">
<g fill="None" fill-opacity="0.0" stroke="#000000" stroke-opacity="0.00" stroke-width="0.3"><path d="
M 0.00 53.00 
C 4.44 27.04 27.11 4.42 53.00 0.00
L 0.00 0.00
L 0.00 53.00 Z"/>
</g>
<g fill="None" fill-opacity="0.0" stroke="#FC3803" stroke-opacity="0.97" stroke-width="0.3"><path d="
M 0.00 53.00 
L 0.00 55.00
C 1.43 56.03 1.69 60.04 0.00 61.00
L 0.00 67.00
C 1.43 68.03 1.69 72.04 0.00 73.00
L 0.00 75.00
C 4.44 100.96 27.11 123.58 53.00 128.00
L 56.00 128.00
C 56.22 126.72 58.81 126.58 59.00 128.00
L 63.00 128.00
C 59.93 123.51 54.12 119.32 50.75 115.25 C 47.39 111.18 40.46 106.11 37.75 102.25 C 35.05 98.38 24.91 92.90 27.00 89.00
C 26.51 89.07 26.00 89.00 26.00 89.00
C 20.94 89.07 21.72 64.48 25.00 64.00
C 24.60 59.53 26.27 52.48 21.25 50.75 C 16.24 49.01 19.14 37.09 21.00 39.00
C 21.61 39.09 24.72 40.50 25.00 41.00
C 25.11 40.00 24.53 38.27 26.00 38.00
C 26.23 37.96 27.75 38.89 28.00 39.00
C 29.72 39.77 29.26 39.39 31.00 39.00
C 32.75 38.61 32.15 38.12 34.00 39.00
C 36.80 40.34 38.24 43.71 41.00 45.00
C 41.43 43.49 42.96 42.82 44.00 42.00
C 48.75 38.26 53.85 35.27 60.00 35.00
C 73.66 32.55 81.37 39.09 90.00 49.00
C 92.42 51.77 96.68 55.92 100.00 57.00
C 99.75 55.07 100.68 54.23 101.00 53.00
C 101.44 49.31 102.70 47.37 104.00 44.00
C 104.38 43.01 104.44 42.01 105.00 41.00
C 106.07 39.08 108.42 36.45 109.00 40.00
C 116.46 44.58 120.25 53.23 128.00 57.00
L 128.00 53.00
C 123.56 27.04 100.89 4.42 75.00 0.00
L 73.00 0.00
C 71.97 1.43 67.96 1.69 67.00 0.00
L 61.00 0.00
C 59.97 1.43 55.96 1.69 55.00 0.00
L 53.00 0.00
C 27.11 4.42 4.44 27.04 0.00 53.00 Z"/>
</g>
<g fill="None" fill-opacity="0.0" stroke="#FE3700" stroke-opacity="0.64" stroke-width="0.3"><path d="
M 61.00 0.00 
L 55.00 0.00
C 55.96 1.69 59.97 1.43 61.00 0.00 Z"/>
</g>
<g fill="None" fill-opacity="0.0" stroke="#FE3700" stroke-opacity="0.64" stroke-width="0.3"><path d="
M 73.00 0.00 
L 67.00 0.00
C 67.96 1.69 71.97 1.43 73.00 0.00 Z"/>
</g>
<g fill="None" fill-opacity="0.0" stroke="#000000" stroke-opacity="0.00" stroke-width="0.3"><path d="
M 128.00 53.00 
L 128.00 0.00
L 75.00 0.00
C 100.89 4.42 123.56 27.04 128.00 53.00 Z"/>
</g>
<g fill="None" fill-opacity="0.0" stroke="#FDC2AC" stroke-opacity="1.00" stroke-width="0.3"><path d="
M 60.00 35.00 
C 61.30 34.94 62.70 34.90 64.00 35.00
C 70.94 35.51 77.93 38.54 83.00 43.00
C 83.75 43.66 84.36 44.36 85.00 45.00
C 85.60 45.60 86.43 46.45 87.00 47.00
C 87.75 47.74 89.36 48.27 90.00 49.00
C 81.37 39.09 73.66 32.55 60.00 35.00 Z"/>
</g>
<g fill="None" fill-opacity="0.0" stroke="#FCFAFA" stroke-opacity="1.00" stroke-width="0.3"><path d="
M 44.00 42.00 
C 43.13 42.84 41.76 44.17 41.00 45.00
C 37.27 49.08 35.37 54.62 35.00 60.00
C 34.82 62.58 34.82 65.42 35.00 68.00
C 35.39 73.77 37.56 78.38 41.00 83.00
C 41.97 84.11 43.94 86.08 45.00 87.00
C 50.14 90.83 55.28 93.47 62.00 93.00
C 62.50 92.97 63.50 92.98 64.00 93.00
C 64.99 90.77 63.26 87.34 64.00 85.00
C 37.59 86.27 36.92 42.09 64.00 44.00
C 64.00 43.50 64.00 43.00 64.00 43.00
C 64.00 40.33 64.00 37.67 64.00 35.00
C 62.70 34.90 61.30 34.94 60.00 35.00
C 53.85 35.27 48.75 38.26 44.00 42.00 Z"/>
</g>
<g fill="None" fill-opacity="0.0" stroke="#DFDEDE" stroke-opacity="1.00" stroke-width="0.3"><path d="
M 64.00 43.00 
C 90.81 41.20 91.07 86.95 64.00 85.00
C 64.00 71.33 64.00 57.67 64.00 44.00
C 36.92 42.09 37.59 86.27 64.00 85.00
C 63.26 87.34 64.99 90.77 64.00 93.00
C 89.39 94.21 96.78 64.72 87.00 47.00
C 86.43 46.45 85.60 45.60 85.00 45.00
C 84.76 44.99 79.12 48.25 80.00 42.00
C 81.28 41.47 81.86 42.97 83.00 43.00
C 77.93 38.54 70.94 35.51 64.00 35.00
C 64.00 37.67 64.00 40.33 64.00 43.00 Z"/>
</g>
<g fill="None" fill-opacity="0.0" stroke="#FDE6D7" stroke-opacity="1.00" stroke-width="0.3"><path d="
M 25.00 64.00 
C 25.49 63.93 26.00 64.00 26.00 64.00
C 26.50 64.00 27.00 64.00 27.00 64.00
C 26.77 61.49 25.97 55.25 27.00 53.00
C 26.43 52.85 22.50 50.11 22.00 49.00
C 21.57 48.04 21.51 47.82 21.00 47.00
C 19.69 44.91 19.48 42.05 21.00 40.00
C 21.00 39.50 21.00 39.00 21.00 39.00
C 19.14 37.09 16.24 49.01 21.25 50.75 C 26.27 52.48 24.60 59.53 25.00 64.00 Z"/>
</g>
<g fill="None" fill-opacity="0.0" stroke="#FFEFCE" stroke-opacity="1.00" stroke-width="0.3"><path d="
M 25.00 41.00 
C 24.90 41.46 26.63 37.67 26.00 38.00
C 24.53 38.27 25.11 40.00 25.00 41.00 Z"/>
</g>
<g fill="None" fill-opacity="0.0" stroke="#F9CCD8" stroke-opacity="1.00" stroke-width="0.3"><path d="
M 25.00 41.00 
C 24.37 43.86 25.47 47.10 25.00 50.00
C 24.06 49.43 23.18 48.85 22.00 49.00
C 22.50 50.11 26.43 52.85 27.00 53.00
C 27.18 52.60 28.63 52.14 29.00 52.00
C 32.73 50.59 36.92 43.30 34.00 39.00
C 32.15 38.12 32.75 38.61 31.00 39.00
C 29.35 41.42 32.99 47.49 29.00 49.00
C 26.87 46.57 28.53 42.18 28.00 39.00
C 27.75 38.89 26.23 37.96 26.00 38.00
C 26.63 37.67 24.90 41.46 25.00 41.00 Z"/>
</g>
<g fill="None" fill-opacity="0.0" stroke="#FFB697" stroke-opacity="1.00" stroke-width="0.3"><path d="
M 105.00 41.00 
C 105.76 40.24 106.97 40.01 108.00 40.00
C 108.50 40.00 109.00 40.00 109.00 40.00
C 108.42 36.45 106.07 39.08 105.00 41.00 Z"/>
</g>
<g fill="None" fill-opacity="0.0" stroke="#A52542" stroke-opacity="1.00" stroke-width="0.3"><path d="
M 21.00 40.00 
C 21.00 42.05 20.44 45.04 21.00 47.00
C 21.51 47.82 21.57 48.04 22.00 49.00
C 23.18 48.85 24.06 49.43 25.00 50.00
C 25.47 47.10 24.37 43.86 25.00 41.00
C 24.72 40.50 21.61 39.09 21.00 39.00
C 21.00 39.00 21.00 39.50 21.00 40.00 Z"/>
</g>
<g fill="None" fill-opacity="0.0" stroke="#991231" stroke-opacity="1.00" stroke-width="0.3"><path d="
M 31.00 39.00 
C 29.26 39.39 29.72 39.77 28.00 39.00
C 28.53 42.18 26.87 46.57 29.00 49.00
C 32.99 47.49 29.35 41.42 31.00 39.00 Z"/>
</g>
<g fill="None" fill-opacity="0.0" stroke="#AE042C" stroke-opacity="0.99" stroke-width="0.3"><path d="
M 29.00 52.00 
C 29.18 52.20 27.86 62.48 28.00 64.00
C 28.50 64.00 29.00 64.00 29.00 64.00
C 32.10 67.00 30.32 82.53 29.00 86.00
C 28.57 87.14 28.75 88.76 27.00 89.00
C 24.91 92.90 35.05 98.38 37.75 102.25 C 40.46 106.11 47.39 111.18 50.75 115.25 C 54.12 119.32 59.93 123.51 63.00 128.00
L 75.00 128.00
C 100.96 123.56 123.58 100.89 128.00 75.00
L 128.00 57.00
C 120.25 53.23 116.46 44.58 109.00 40.00
C 109.71 47.85 109.00 56.11 109.00 64.00
C 109.00 70.25 111.41 84.21 108.00 89.00
C 103.42 95.44 101.66 86.58 102.00 82.00 C 102.34 77.42 102.83 68.74 102.00 64.00
C 100.31 63.47 101.41 61.22 101.00 60.00
C 100.76 59.28 99.92 59.28 100.00 58.00
C 100.03 57.50 100.00 57.00 100.00 57.00
C 96.68 55.92 92.42 51.77 90.00 49.00
C 106.75 68.20 81.55 95.79 62.00 93.00
C 55.28 93.47 50.14 90.83 45.00 87.00
C 43.34 85.77 42.20 84.61 41.00 83.00
C 37.56 78.38 35.39 73.77 35.00 68.00
C 34.48 65.08 34.49 62.86 35.00 60.00
C 35.37 54.62 37.27 49.08 41.00 45.00
C 38.24 43.71 36.80 40.34 34.00 39.00
C 36.92 43.30 32.73 50.59 29.00 52.00 Z"/>
</g>
<g fill="None" fill-opacity="0.0" stroke="#FFECF9" stroke-opacity="1.00" stroke-width="0.3"><path d="
M 21.00 47.00 
C 20.44 45.04 21.00 42.05 21.00 40.00
C 19.48 42.05 19.69 44.91 21.00 47.00 Z"/>
</g>
<g fill="None" fill-opacity="0.0" stroke="#F3DAE0" stroke-opacity="1.00" stroke-width="0.3"><path d="
M 105.00 41.00 
C 104.44 42.01 104.38 43.01 104.00 44.00
C 104.05 49.53 106.96 56.31 106.00 63.00
C 106.02 62.99 108.04 64.08 108.00 64.00
C 107.32 56.43 107.32 47.57 108.00 40.00
C 106.97 40.01 105.76 40.24 105.00 41.00 Z"/>
</g>
<g fill="None" fill-opacity="0.0" stroke="#FF9DBC" stroke-opacity="1.00" stroke-width="0.3"><path d="
M 108.00 64.00 
C 108.00 63.96 109.00 64.00 109.00 64.00
C 109.00 56.11 109.71 47.85 109.00 40.00
C 109.00 40.00 108.50 40.00 108.00 40.00
C 107.32 47.57 107.32 56.43 108.00 64.00 Z"/>
</g>
<g fill="None" fill-opacity="0.0" stroke="#FD987A" stroke-opacity="1.00" stroke-width="0.3"><path d="
M 41.00 45.00 
C 41.76 44.17 43.13 42.84 44.00 42.00
C 42.96 42.82 41.43 43.49 41.00 45.00 Z"/>
</g>
<g fill="None" fill-opacity="0.0" stroke="#D0E1CD" stroke-opacity="1.00" stroke-width="0.3"><path d="
M 85.00 45.00 
C 84.36 44.36 83.75 43.66 83.00 43.00
C 81.86 42.97 81.28 41.47 80.00 42.00
C 79.12 48.25 84.76 44.99 85.00 45.00 Z"/>
</g>
<g fill="None" fill-opacity="0.0" stroke="#BCBCBC" stroke-opacity="1.00" stroke-width="0.3"><path d="
M 64.00 44.00 
C 64.00 57.67 64.00 71.33 64.00 85.00
C 91.07 86.95 90.81 41.20 64.00 43.00
C 64.00 43.00 64.00 43.50 64.00 44.00 Z"/>
</g>
<g fill="None" fill-opacity="0.0" stroke="#F9F4EC" stroke-opacity="1.00" stroke-width="0.3"><path d="
M 101.00 53.00 
C 100.84 54.35 100.02 57.31 100.00 58.00
C 99.92 59.28 100.76 59.28 101.00 60.00
C 102.40 60.64 103.04 60.48 103.00 64.00
C 103.50 64.00 104.00 64.00 104.00 64.00
C 104.50 64.00 105.00 64.00 105.00 64.00
C 105.35 63.97 105.95 63.35 106.00 63.00
C 106.96 56.31 104.05 49.53 104.00 44.00
C 102.70 47.37 101.44 49.31 101.00 53.00 Z"/>
</g>
<g fill="None" fill-opacity="0.0" stroke="#F4C1CF" stroke-opacity="1.00" stroke-width="0.3"><path d="
M 64.00 93.00 
C 63.50 92.98 62.50 92.97 62.00 93.00
C 81.55 95.79 106.75 68.20 90.00 49.00
C 89.36 48.27 87.75 47.74 87.00 47.00
C 96.78 64.72 89.39 94.21 64.00 93.00 Z"/>
</g>
<g fill="None" fill-opacity="0.0" stroke="#E59DAA" stroke-opacity="1.00" stroke-width="0.3"><path d="
M 27.00 53.00 
C 25.97 55.25 26.77 61.49 27.00 64.00
C 27.50 64.00 28.00 64.00 28.00 64.00
C 27.86 62.48 29.18 52.20 29.00 52.00
C 28.63 52.14 27.18 52.60 27.00 53.00 Z"/>
</g>
<g fill="None" fill-opacity="0.0" stroke="#FFB394" stroke-opacity="1.00" stroke-width="0.3"><path d="
M 100.00 57.00 
C 100.00 57.00 100.03 57.50 100.00 58.00
C 100.02 57.31 100.84 54.35 101.00 53.00
C 100.68 54.23 99.75 55.07 100.00 57.00 Z"/>
</g>
<g fill="None" fill-opacity="0.0" stroke="#FE3700" stroke-opacity="0.64" stroke-width="0.3"><path d="
M 0.00 61.00 
C 1.69 60.04 1.43 56.03 0.00 55.00
L 0.00 61.00 Z"/>
</g>
<g fill="None" fill-opacity="0.0" stroke="#FED9E8" stroke-opacity="1.00" stroke-width="0.3"><path d="
M 101.00 60.00 
C 101.41 61.22 100.31 63.47 102.00 64.00
C 102.46 64.14 103.00 64.00 103.00 64.00
C 103.04 60.48 102.40 60.64 101.00 60.00 Z"/>
</g>
<g fill="None" fill-opacity="0.0" stroke="#EFA2B7" stroke-opacity="1.00" stroke-width="0.3"><path d="
M 35.00 68.00 
C 34.82 65.42 34.82 62.58 35.00 60.00
C 34.49 62.86 34.48 65.08 35.00 68.00 Z"/>
</g>
<g fill="None" fill-opacity="0.0" stroke="#FEC42C" stroke-opacity="1.00" stroke-width="0.3"><path d="
M 105.00 64.00 
C 105.77 72.60 104.42 81.39 105.00 90.00
C 105.61 90.10 107.65 89.54 108.00 89.00
C 109.85 86.14 107.24 80.58 108.00 77.00 C 108.76 73.42 107.66 67.79 108.00 64.00
C 108.04 64.08 106.02 62.99 106.00 63.00
C 105.95 63.35 105.35 63.97 105.00 64.00 Z"/>
</g>
<g fill="None" fill-opacity="0.0" stroke="#FFD979" stroke-opacity="1.00" stroke-width="0.3"><path d="
M 26.00 89.00 
C 25.25 80.73 26.75 72.27 26.00 64.00
C 26.00 64.00 25.49 63.93 25.00 64.00
C 21.72 64.48 20.94 89.07 26.00 89.00 Z"/>
</g>
<g fill="None" fill-opacity="0.0" stroke="#FFC12C" stroke-opacity="1.00" stroke-width="0.3"><path d="
M 26.00 89.00 
C 26.00 89.00 26.51 89.07 27.00 89.00
C 28.75 88.76 28.57 87.14 29.00 86.00
C 30.35 79.80 29.57 70.34 29.00 64.00
C 29.00 64.00 28.50 64.00 28.00 64.00
C 28.00 64.00 27.50 64.00 27.00 64.00
C 27.00 64.00 26.50 64.00 26.00 64.00
C 26.75 72.27 25.25 80.73 26.00 89.00 Z"/>
</g>
<g fill="None" fill-opacity="0.0" stroke="#E8681C" stroke-opacity="1.00" stroke-width="0.3"><path d="
M 29.00 86.00 
C 30.32 82.53 32.10 67.00 29.00 64.00
C 29.57 70.34 30.35 79.80 29.00 86.00 Z"/>
</g>
<g fill="None" fill-opacity="0.0" stroke="#FFD296" stroke-opacity="1.00" stroke-width="0.3"><path d="
M 108.00 89.00 
C 107.65 89.54 105.61 90.10 105.00 90.00
C 101.55 89.46 102.89 81.05 103.00 78.00 C 103.11 74.95 101.80 66.73 104.00 64.00
C 104.00 64.00 103.50 64.00 103.00 64.00
C 103.00 64.00 102.46 64.14 102.00 64.00
C 102.83 68.74 102.34 77.42 102.00 82.00 C 101.66 86.58 103.42 95.44 108.00 89.00 Z"/>
</g>
<g fill="None" fill-opacity="0.0" stroke="#FFE16D" stroke-opacity="1.00" stroke-width="0.3"><path d="
M 105.00 90.00 
C 104.42 81.39 105.77 72.60 105.00 64.00
C 105.00 64.00 104.50 64.00 104.00 64.00
C 101.80 66.73 103.11 74.95 103.00 78.00 C 102.89 81.05 101.55 89.46 105.00 90.00 Z"/>
</g>
<g fill="None" fill-opacity="0.0" stroke="#FE865A" stroke-opacity="1.00" stroke-width="0.3"><path d="
M 108.00 89.00 
C 111.41 84.21 109.00 70.25 109.00 64.00
C 109.00 64.00 108.00 63.96 108.00 64.00
C 107.66 67.79 108.76 73.42 108.00 77.00 C 107.24 80.58 109.85 86.14 108.00 89.00 Z"/>
</g>
<g fill="None" fill-opacity="0.0" stroke="#FE3700" stroke-opacity="0.64" stroke-width="0.3"><path d="
M 0.00 73.00 
C 1.69 72.04 1.43 68.03 0.00 67.00
L 0.00 73.00 Z"/>
</g>
<g fill="None" fill-opacity="0.0" stroke="#000000" stroke-opacity="0.00" stroke-width="0.3"><path d="
M 0.00 128.00 
L 53.00 128.00
C 27.11 123.58 4.44 100.96 0.00 75.00
L 0.00 128.00 Z"/>
</g>
<g fill="None" fill-opacity="0.0" stroke="#000000" stroke-opacity="0.00" stroke-width="0.3"><path d="
M 75.00 128.00 
L 128.00 128.00
L 128.00 75.00
C 123.58 100.89 100.96 123.56 75.00 128.00 Z"/>
</g>
<g fill="None" fill-opacity="0.0" stroke="#EE7A9B" stroke-opacity="1.00" stroke-width="0.3"><path d="
M 45.00 87.00 
C 43.94 86.08 41.97 84.11 41.00 83.00
C 42.20 84.61 43.34 85.77 45.00 87.00 Z"/>
</g>
<g fill="None" fill-opacity="0.0" stroke="#FE3900" stroke-opacity="0.62" stroke-width="0.3"><path d="
M 56.00 128.00 
L 59.00 128.00
C 58.81 126.58 56.22 126.72 56.00 128.00 Z"/>
</g>
<g fill="#000000" fill-opacity="0.00" stroke="None">
<path d="
M 0.00 53.00 
C 4.44 27.04 27.11 4.42 53.00 0.00
L 0.00 0.00
L 0.00 53.00 Z"/>
</g>
<g fill="#FC3803" fill-opacity="0.97" stroke="None">
<path d="
M 0.00 53.00 
L 0.00 55.00
C 1.43 56.03 1.69 60.04 0.00 61.00
L 0.00 67.00
C 1.43 68.03 1.69 72.04 0.00 73.00
L 0.00 75.00
C 4.44 100.96 27.11 123.58 53.00 128.00
L 56.00 128.00
C 56.22 126.72 58.81 126.58 59.00 128.00
L 63.00 128.00
C 59.93 123.51 54.12 119.32 50.75 115.25 C 47.39 111.18 40.46 106.11 37.75 102.25 C 35.05 98.38 24.91 92.90 27.00 89.00
C 26.51 89.07 26.00 89.00 26.00 89.00
C 20.94 89.07 21.72 64.48 25.00 64.00
C 24.60 59.53 26.27 52.48 21.25 50.75 C 16.24 49.01 19.14 37.09 21.00 39.00
C 21.61 39.09 24.72 40.50 25.00 41.00
C 25.11 40.00 24.53 38.27 26.00 38.00
C 26.23 37.96 27.75 38.89 28.00 39.00
C 29.72 39.77 29.26 39.39 31.00 39.00
C 32.75 38.61 32.15 38.12 34.00 39.00
C 36.80 40.34 38.24 43.71 41.00 45.00
C 41.43 43.49 42.96 42.82 44.00 42.00
C 48.75 38.26 53.85 35.27 60.00 35.00
C 73.66 32.55 81.37 39.09 90.00 49.00
C 92.42 51.77 96.68 55.92 100.00 57.00
C 99.75 55.07 100.68 54.23 101.00 53.00
C 101.44 49.31 102.70 47.37 104.00 44.00
C 104.38 43.01 104.44 42.01 105.00 41.00
C 106.07 39.08 108.42 36.45 109.00 40.00
C 116.46 44.58 120.25 53.23 128.00 57.00
L 128.00 53.00
C 123.56 27.04 100.89 4.42 75.00 0.00
L 73.00 0.00
C 71.97 1.43 67.96 1.69 67.00 0.00
L 61.00 0.00
C 59.97 1.43 55.96 1.69 55.00 0.00
L 53.00 0.00
C 27.11 4.42 4.44 27.04 0.00 53.00 Z"/>
</g>
<g fill="#FE3700" fill-opacity="0.64" stroke="None">
<path d="
M 61.00 0.00 
L 55.00 0.00
C 55.96 1.69 59.97 1.43 61.00 0.00 Z"/>
</g>
<g fill="#FE3700" fill-opacity="0.64" stroke="None">
<path d="
M 73.00 0.00 
L 67.00 0.00
C 67.96 1.69 71.97 1.43 73.00 0.00 Z"/>
</g>
<g fill="#000000" fill-opacity="0.00" stroke="None">
<path d="
M 128.00 53.00 
L 128.00 0.00
L 75.00 0.00
C 100.89 4.42 123.56 27.04 128.00 53.00 Z"/>
</g>
<g fill="#FDC2AC" fill-opacity="1.00" stroke="None">
<path d="
M 60.00 35.00 
C 61.30 34.94 62.70 34.90 64.00 35.00
C 70.94 35.51 77.93 38.54 83.00 43.00
C 83.75 43.66 84.36 44.36 85.00 45.00
C 85.60 45.60 86.43 46.45 87.00 47.00
C 87.75 47.74 89.36 48.27 90.00 49.00
C 81.37 39.09 73.66 32.55 60.00 35.00 Z"/>
</g>
<g fill="#FCFAFA" fill-opacity="1.00" stroke="None">
<path d="
M 44.00 42.00 
C 43.13 42.84 41.76 44.17 41.00 45.00
C 37.27 49.08 35.37 54.62 35.00 60.00
C 34.82 62.58 34.82 65.42 35.00 68.00
C 35.39 73.77 37.56 78.38 41.00 83.00
C 41.97 84.11 43.94 86.08 45.00 87.00
C 50.14 90.83 55.28 93.47 62.00 93.00
C 62.50 92.97 63.50 92.98 64.00 93.00
C 64.99 90.77 63.26 87.34 64.00 85.00
C 37.59 86.27 36.92 42.09 64.00 44.00
C 64.00 43.50 64.00 43.00 64.00 43.00
C 64.00 40.33 64.00 37.67 64.00 35.00
C 62.70 34.90 61.30 34.94 60.00 35.00
C 53.85 35.27 48.75 38.26 44.00 42.00 Z"/>
</g>
<g fill="#DFDEDE" fill-opacity="1.00" stroke="None">
<path d="
M 64.00 43.00 
C 90.81 41.20 91.07 86.95 64.00 85.00
C 64.00 71.33 64.00 57.67 64.00 44.00
C 36.92 42.09 37.59 86.27 64.00 85.00
C 63.26 87.34 64.99 90.77 64.00 93.00
C 89.39 94.21 96.78 64.72 87.00 47.00
C 86.43 46.45 85.60 45.60 85.00 45.00
C 84.76 44.99 79.12 48.25 80.00 42.00
C 81.28 41.47 81.86 42.97 83.00 43.00
C 77.93 38.54 70.94 35.51 64.00 35.00
C 64.00 37.67 64.00 40.33 64.00 43.00 Z"/>
</g>
<g fill="#FDE6D7" fill-opacity="1.00" stroke="None">
<path d="
M 25.00 64.00 
C 25.49 63.93 26.00 64.00 26.00 64.00
C 26.50 64.00 27.00 64.00 27.00 64.00
C 26.77 61.49 25.97 55.25 27.00 53.00
C 26.43 52.85 22.50 50.11 22.00 49.00
C 21.57 48.04 21.51 47.82 21.00 47.00
C 19.69 44.91 19.48 42.05 21.00 40.00
C 21.00 39.50 21.00 39.00 21.00 39.00
C 19.14 37.09 16.24 49.01 21.25 50.75 C 26.27 52.48 24.60 59.53 25.00 64.00 Z"/>
</g>
<g fill="#FFEFCE" fill-opacity="1.00" stroke="None">
<path d="
M 25.00 41.00 
C 24.90 41.46 26.63 37.67 26.00 38.00
C 24.53 38.27 25.11 40.00 25.00 41.00 Z"/>
</g>
<g fill="#F9CCD8" fill-opacity="1.00" stroke="None">
<path d="
M 25.00 41.00 
C 24.37 43.86 25.47 47.10 25.00 50.00
C 24.06 49.43 23.18 48.85 22.00 49.00
C 22.50 50.11 26.43 52.85 27.00 53.00
C 27.18 52.60 28.63 52.14 29.00 52.00
C 32.73 50.59 36.92 43.30 34.00 39.00
C 32.15 38.12 32.75 38.61 31.00 39.00
C 29.35 41.42 32.99 47.49 29.00 49.00
C 26.87 46.57 28.53 42.18 28.00 39.00
C 27.75 38.89 26.23 37.96 26.00 38.00
C 26.63 37.67 24.90 41.46 25.00 41.00 Z"/>
</g>
<g fill="#FFB697" fill-opacity="1.00" stroke="None">
<path d="
M 105.00 41.00 
C 105.76 40.24 106.97 40.01 108.00 40.00
C 108.50 40.00 109.00 40.00 109.00 40.00
C 108.42 36.45 106.07 39.08 105.00 41.00 Z"/>
</g>
<g fill="#A52542" fill-opacity="1.00" stroke="None">
<path d="
M 21.00 40.00 
C 21.00 42.05 20.44 45.04 21.00 47.00
C 21.51 47.82 21.57 48.04 22.00 49.00
C 23.18 48.85 24.06 49.43 25.00 50.00
C 25.47 47.10 24.37 43.86 25.00 41.00
C 24.72 40.50 21.61 39.09 21.00 39.00
C 21.00 39.00 21.00 39.50 21.00 40.00 Z"/>
</g>
<g fill="#991231" fill-opacity="1.00" stroke="None">
<path d="
M 31.00 39.00 
C 29.26 39.39 29.72 39.77 28.00 39.00
C 28.53 42.18 26.87 46.57 29.00 49.00
C 32.99 47.49 29.35 41.42 31.00 39.00 Z"/>
</g>
<g fill="#AE042C" fill-opacity="0.99" stroke="None">
<path d="
M 29.00 52.00 
C 29.18 52.20 27.86 62.48 28.00 64.00
C 28.50 64.00 29.00 64.00 29.00 64.00
C 32.10 67.00 30.32 82.53 29.00 86.00
C 28.57 87.14 28.75 88.76 27.00 89.00
C 24.91 92.90 35.05 98.38 37.75 102.25 C 40.46 106.11 47.39 111.18 50.75 115.25 C 54.12 119.32 59.93 123.51 63.00 128.00
L 75.00 128.00
C 100.96 123.56 123.58 100.89 128.00 75.00
L 128.00 57.00
C 120.25 53.23 116.46 44.58 109.00 40.00
C 109.71 47.85 109.00 56.11 109.00 64.00
C 109.00 70.25 111.41 84.21 108.00 89.00
C 103.42 95.44 101.66 86.58 102.00 82.00 C 102.34 77.42 102.83 68.74 102.00 64.00
C 100.31 63.47 101.41 61.22 101.00 60.00
C 100.76 59.28 99.92 59.28 100.00 58.00
C 100.03 57.50 100.00 57.00 100.00 57.00
C 96.68 55.92 92.42 51.77 90.00 49.00
C 106.75 68.20 81.55 95.79 62.00 93.00
C 55.28 93.47 50.14 90.83 45.00 87.00
C 43.34 85.77 42.20 84.61 41.00 83.00
C 37.56 78.38 35.39 73.77 35.00 68.00
C 34.48 65.08 34.49 62.86 35.00 60.00
C 35.37 54.62 37.27 49.08 41.00 45.00
C 38.24 43.71 36.80 40.34 34.00 39.00
C 36.92 43.30 32.73 50.59 29.00 52.00 Z"/>
</g>
<g fill="#FFECF9" fill-opacity="1.00" stroke="None">
<path d="
M 21.00 47.00 
C 20.44 45.04 21.00 42.05 21.00 40.00
C 19.48 42.05 19.69 44.91 21.00 47.00 Z"/>
</g>
<g fill="#F3DAE0" fill-opacity="1.00" stroke="None">
<path d="
M 105.00 41.00 
C 104.44 42.01 104.38 43.01 104.00 44.00
C 104.05 49.53 106.96 56.31 106.00 63.00
C 106.02 62.99 108.04 64.08 108.00 64.00
C 107.32 56.43 107.32 47.57 108.00 40.00
C 106.97 40.01 105.76 40.24 105.00 41.00 Z"/>
</g>
<g fill="#FF9DBC" fill-opacity="1.00" stroke="None">
<path d="
M 108.00 64.00 
C 108.00 63.96 109.00 64.00 109.00 64.00
C 109.00 56.11 109.71 47.85 109.00 40.00
C 109.00 40.00 108.50 40.00 108.00 40.00
C 107.32 47.57 107.32 56.43 108.00 64.00 Z"/>
</g>
<g fill="#FD987A" fill-opacity="1.00" stroke="None">
<path d="
M 41.00 45.00 
C 41.76 44.17 43.13 42.84 44.00 42.00
C 42.96 42.82 41.43 43.49 41.00 45.00 Z"/>
</g>
<g fill="#D0E1CD" fill-opacity="1.00" stroke="None">
<path d="
M 85.00 45.00 
C 84.36 44.36 83.75 43.66 83.00 43.00
C 81.86 42.97 81.28 41.47 80.00 42.00
C 79.12 48.25 84.76 44.99 85.00 45.00 Z"/>
</g>
<g fill="#BCBCBC" fill-opacity="1.00" stroke="None">
<path d="
M 64.00 44.00 
C 64.00 57.67 64.00 71.33 64.00 85.00
C 91.07 86.95 90.81 41.20 64.00 43.00
C 64.00 43.00 64.00 43.50 64.00 44.00 Z"/>
</g>
<g fill="#F9F4EC" fill-opacity="1.00" stroke="None">
<path d="
M 101.00 53.00 
C 100.84 54.35 100.02 57.31 100.00 58.00
C 99.92 59.28 100.76 59.28 101.00 60.00
C 102.40 60.64 103.04 60.48 103.00 64.00
C 103.50 64.00 104.00 64.00 104.00 64.00
C 104.50 64.00 105.00 64.00 105.00 64.00
C 105.35 63.97 105.95 63.35 106.00 63.00
C 106.96 56.31 104.05 49.53 104.00 44.00
C 102.70 47.37 101.44 49.31 101.00 53.00 Z"/>
</g>
<g fill="#F4C1CF" fill-opacity="1.00" stroke="None">
<path d="
M 64.00 93.00 
C 63.50 92.98 62.50 92.97 62.00 93.00
C 81.55 95.79 106.75 68.20 90.00 49.00
C 89.36 48.27 87.75 47.74 87.00 47.00
C 96.78 64.72 89.39 94.21 64.00 93.00 Z"/>
</g>
<g fill="#E59DAA" fill-opacity="1.00" stroke="None">
<path d="
M 27.00 53.00 
C 25.97 55.25 26.77 61.49 27.00 64.00
C 27.50 64.00 28.00 64.00 28.00 64.00
C 27.86 62.48 29.18 52.20 29.00 52.00
C 28.63 52.14 27.18 52.60 27.00 53.00 Z"/>
</g>
<g fill="#FFB394" fill-opacity="1.00" stroke="None">
<path d="
M 100.00 57.00 
C 100.00 57.00 100.03 57.50 100.00 58.00
C 100.02 57.31 100.84 54.35 101.00 53.00
C 100.68 54.23 99.75 55.07 100.00 57.00 Z"/>
</g>
<g fill="#FE3700" fill-opacity="0.64" stroke="None">
<path d="
M 0.00 61.00 
C 1.69 60.04 1.43 56.03 0.00 55.00
L 0.00 61.00 Z"/>
</g>
<g fill="#FED9E8" fill-opacity="1.00" stroke="None">
<path d="
M 101.00 60.00 
C 101.41 61.22 100.31 63.47 102.00 64.00
C 102.46 64.14 103.00 64.00 103.00 64.00
C 103.04 60.48 102.40 60.64 101.00 60.00 Z"/>
</g>
<g fill="#EFA2B7" fill-opacity="1.00" stroke="None">
<path d="
M 35.00 68.00 
C 34.82 65.42 34.82 62.58 35.00 60.00
C 34.49 62.86 34.48 65.08 35.00 68.00 Z"/>
</g>
<g fill="#FEC42C" fill-opacity="1.00" stroke="None">
<path d="
M 105.00 64.00 
C 105.77 72.60 104.42 81.39 105.00 90.00
C 105.61 90.10 107.65 89.54 108.00 89.00
C 109.85 86.14 107.24 80.58 108.00 77.00 C 108.76 73.42 107.66 67.79 108.00 64.00
C 108.04 64.08 106.02 62.99 106.00 63.00
C 105.95 63.35 105.35 63.97 105.00 64.00 Z"/>
</g>
<g fill="#FFD979" fill-opacity="1.00" stroke="None">
<path d="
M 26.00 89.00 
C 25.25 80.73 26.75 72.27 26.00 64.00
C 26.00 64.00 25.49 63.93 25.00 64.00
C 21.72 64.48 20.94 89.07 26.00 89.00 Z"/>
</g>
<g fill="#FFC12C" fill-opacity="1.00" stroke="None">
<path d="
M 26.00 89.00 
C 26.00 89.00 26.51 89.07 27.00 89.00
C 28.75 88.76 28.57 87.14 29.00 86.00
C 30.35 79.80 29.57 70.34 29.00 64.00
C 29.00 64.00 28.50 64.00 28.00 64.00
C 28.00 64.00 27.50 64.00 27.00 64.00
C 27.00 64.00 26.50 64.00 26.00 64.00
C 26.75 72.27 25.25 80.73 26.00 89.00 Z"/>
</g>
<g fill="#E8681C" fill-opacity="1.00" stroke="None">
<path d="
M 29.00 86.00 
C 30.32 82.53 32.10 67.00 29.00 64.00
C 29.57 70.34 30.35 79.80 29.00 86.00 Z"/>
</g>
<g fill="#FFD296" fill-opacity="1.00" stroke="None">
<path d="
M 108.00 89.00 
C 107.65 89.54 105.61 90.10 105.00 90.00
C 101.55 89.46 102.89 81.05 103.00 78.00 C 103.11 74.95 101.80 66.73 104.00 64.00
C 104.00 64.00 103.50 64.00 103.00 64.00
C 103.00 64.00 102.46 64.14 102.00 64.00
C 102.83 68.74 102.34 77.42 102.00 82.00 C 101.66 86.58 103.42 95.44 108.00 89.00 Z"/>
</g>
<g fill="#FFE16D" fill-opacity="1.00" stroke="None">
<path d="
M 105.00 90.00 
C 104.42 81.39 105.77 72.60 105.00 64.00
C 105.00 64.00 104.50 64.00 104.00 64.00
C 101.80 66.73 103.11 74.95 103.00 78.00 C 102.89 81.05 101.55 89.46 105.00 90.00 Z"/>
</g>
<g fill="#FE865A" fill-opacity="1.00" stroke="None">
<path d="
M 108.00 89.00 
C 111.41 84.21 109.00 70.25 109.00 64.00
C 109.00 64.00 108.00 63.96 108.00 64.00
C 107.66 67.79 108.76 73.42 108.00 77.00 C 107.24 80.58 109.85 86.14 108.00 89.00 Z"/>
</g>
<g fill="#FE3700" fill-opacity="0.64" stroke="None">
<path d="
M 0.00 73.00 
C 1.69 72.04 1.43 68.03 0.00 67.00
L 0.00 73.00 Z"/>
</g>
<g fill="#000000" fill-opacity="0.00" stroke="None">
<path d="
M 0.00 128.00 
L 53.00 128.00
C 27.11 123.58 4.44 100.96 0.00 75.00
L 0.00 128.00 Z"/>
</g>
<g fill="#000000" fill-opacity="0.00" stroke="None">
<path d="
M 75.00 128.00 
L 128.00 128.00
L 128.00 75.00
C 123.58 100.89 100.96 123.56 75.00 128.00 Z"/>
</g>
<g fill="#EE7A9B" fill-opacity="1.00" stroke="None">
<path d="
M 45.00 87.00 
C 43.94 86.08 41.97 84.11 41.00 83.00
C 42.20 84.61 43.34 85.77 45.00 87.00 Z"/>
</g>
<g fill="#FE3900" fill-opacity="0.62" stroke="None">
<path d="
M 56.00 128.00 
L 59.00 128.00
C 58.81 126.58 56.22 126.72 56.00 128.00 Z"/>
</g>
</svg>